<svg data-v-fde0c5aa="" xmlns="http://www.w3.org/2000/svg" viewBox="0 0 300 300" class="iconLeftSlogan"><!----><defs data-v-fde0c5aa=""><linearGradient data-v-fde0c5aa="" gradientTransform="rotate(25)" id="a65f14f6-a329-4587-ad1c-d189e853178c" x1="0%" y1="0%" x2="100%" y2="0%"><stop data-v-fde0c5aa="" offset="0%" stop-color="#820B7D" stop-opacity="1"></stop><stop data-v-fde0c5aa="" offset="100%" stop-color="#7751A4" stop-opacity="1"></stop></linearGradient></defs><rect data-v-fde0c5aa="" fill="url(#a65f14f6-a329-4587-ad1c-d189e853178c)" x="0" y="0" width="300px" height="300px" class="logo-background-square"></rect><defs data-v-fde0c5aa=""><!----></defs><g data-v-fde0c5aa="" id="4c524f0c-0cc0-4832-bb65-feefb995d5d5" fill="#ffffff" transform="matrix(1.9872155292032085,0,0,1.9872155292032085,166.18355384293207,121.42947082274132)"><path d="M5.01 13.01L5.01 13.01Q3.82 13.01 2.83 12.44L2.83 12.44L2.83 12.44Q1.85 11.87 1.27 10.82L1.27 10.82L1.27 10.82Q0.69 9.77 0.69 8.37L0.69 8.37L0.69 8.37Q0.69 6.96 1.25 5.88L1.25 5.88L1.25 5.88Q1.81 4.80 2.84 4.21L2.84 4.21L2.84 4.21Q3.88 3.61 5.26 3.61L5.26 3.61L5.26 3.61Q6.47 3.61 7.41 4.10L7.41 4.10L7.41 4.10Q8.34 4.58 8.34 5.59L8.34 5.59L8.34 5.59Q8.36 6.22 7.97 6.66L7.97 6.66L7.97 6.66Q7.57 7.10 6.92 7.10L6.92 7.10L6.92 7.10Q6.66 7.10 6.49 7.01L6.49 7.01L6.49 7.01Q6.31 6.92 6.23 6.79L6.23 6.79L6.23 6.79Q6.15 6.66 6.16 6.59L6.16 6.59L6.16 6.59Q6.16 6.57 6.36 6.44L6.36 6.44L6.36 6.44Q6.55 6.31 6.71 6.09L6.71 6.09L6.71 6.09Q6.86 5.87 6.86 5.54L6.86 5.54L6.86 5.54Q6.86 4.91 6.43 4.54L6.43 4.54L6.43 4.54Q6.01 4.17 5.25 4.17L5.25 4.17L5.25 4.17Q4.40 4.17 3.73 4.66L3.73 4.66L3.73 4.66Q3.07 5.14 2.69 6.07L2.69 6.07L2.69 6.07Q2.32 7.00 2.32 8.29L2.32 8.29L2.32 8.29Q2.32 9.41 2.72 10.33L2.72 10.33L2.72 10.33Q3.12 11.24 3.85 11.78L3.85 11.78L3.85 11.78Q4.58 12.32 5.52 12.32L5.52 12.32L5.52 12.32Q6.27 12.32 6.81 12.01L6.81 12.01L6.81 12.01Q7.35 11.69 7.78 10.99L7.78 10.99L7.78 10.99Q7.85 10.86 7.98 10.86L7.98 10.86L7.98 10.86Q8.09 10.86 8.23 10.95L8.23 10.95L8.23 10.95Q8.46 11.10 8.46 11.26L8.46 11.26L8.46 11.26Q8.46 11.34 8.40 11.40L8.40 11.40L8.40 11.40Q7.87 12.07 7.40 12.41L7.40 12.41L7.40 12.41Q6.93 12.75 6.38 12.88L6.38 12.88L6.38 12.88Q5.84 13.01 5.01 13.01L5.01 13.01ZM11.30 12.89L11.30 12.89Q10.46 12.89 9.94 12.42L9.94 12.42L9.94 12.42Q9.42 11.94 9.42 11.23L9.42 11.23L9.42 11.23Q9.42 10.35 10.01 9.91L10.01 9.91L10.01 9.91Q10.60 9.46 11.41 9.33L11.41 9.33L11.41 9.33Q12.22 9.20 13.51 9.13L13.51 9.13L13.51 8.02L13.51 8.02Q13.51 7.34 13.17 6.98L13.17 6.98L13.17 6.98Q12.82 6.62 12.07 6.62L12.07 6.62L12.07 6.62Q11.63 6.62 11.31 6.89L11.31 6.89L11.31 6.89Q10.99 7.15 10.99 7.60L10.99 7.60L10.99 7.60Q10.99 7.83 11.09 7.97L11.09 7.97L11.09 7.97Q11.20 8.12 11.32 8.22L11.32 8.22L11.32 8.22Q11.44 8.32 11.44 8.33L11.44 8.33L11.44 8.33Q11.44 8.41 11.26 8.55L11.26 8.55L11.26 8.55Q11.09 8.68 10.84 8.68L10.84 8.68L10.84 8.68Q10.42 8.68 10.17 8.37L10.17 8.37L10.17 8.37Q9.93 8.06 9.93 7.64L9.93 7.64L9.93 7.64Q9.93 6.92 10.58 6.57L10.58 6.57L10.58 6.57Q11.23 6.22 12.15 6.22L12.15 6.22L12.15 6.22Q13.30 6.22 14.02 6.65L14.02 6.65L14.02 6.65Q14.74 7.08 14.74 8.26L14.74 8.26L14.74 11.52L14.74 11.52Q14.76 11.82 14.92 12.08L14.92 12.08L14.92 12.08Q15.09 12.35 15.47 12.35L15.47 12.35L15.47 12.35Q15.58 12.35 15.63 12.39L15.63 12.39L15.63 12.39Q15.68 12.43 15.68 12.57L15.68 12.57L15.68 12.57Q15.68 12.74 15.42 12.82L15.42 12.82L15.42 12.82Q15.16 12.89 14.91 12.89L14.91 12.89L14.91 12.89Q14.38 12.89 13.97 12.59L13.97 12.59L13.97 12.59Q13.57 12.28 13.51 11.76L13.51 11.76L13.51 11.76Q13.22 12.31 12.61 12.60L12.61 12.60L12.61 12.60Q12.00 12.89 11.30 12.89L11.30 12.89ZM11.75 12.14L11.75 12.14Q12.22 12.14 12.63 11.90L12.63 11.90L12.63 11.90Q13.03 11.66 13.27 11.25L13.27 11.25L13.27 11.25Q13.51 10.84 13.51 10.33L13.51 10.33L13.51 9.53L13.51 9.53Q12.04 9.65 11.44 10.01L11.44 10.01L11.44 10.01Q10.84 10.37 10.84 11.19L10.84 11.19L10.84 11.19Q10.84 12.14 11.75 12.14L11.75 12.14ZM19.01 12.89L19.01 12.89Q17.89 12.89 17.19 12.50L17.19 12.50L17.19 12.50Q16.49 12.11 16.49 11.40L16.49 11.40L16.49 11.40Q16.49 10.99 16.74 10.74L16.74 10.74L16.74 10.74Q16.98 10.49 17.37 10.49L17.37 10.49L17.37 10.49Q17.60 10.49 17.77 10.61L17.77 10.61L17.77 10.61Q17.95 10.74 17.95 10.81L17.95 10.81L17.95 10.81Q17.95 10.82 17.79 10.99L17.79 10.99L17.79 10.99Q17.63 11.16 17.63 11.47L17.63 11.47L17.63 11.47Q17.63 11.89 18.01 12.13L18.01 12.13L18.01 12.13Q18.40 12.38 19.12 12.38L19.12 12.38L19.12 12.38Q19.78 12.38 20.15 12.09L20.15 12.09L20.15 12.09Q20.52 11.80 20.52 11.28L20.52 11.28L20.52 11.28Q20.52 10.93 20.31 10.71L20.31 10.71L20.31 10.71Q20.10 10.49 19.79 10.36L19.79 10.36L19.79 10.36Q19.47 10.23 18.91 10.07L18.91 10.07L18.91 10.07Q18.23 9.87 17.79 9.67L17.79 9.67L17.79 9.67Q17.36 9.48 17.05 9.09L17.05 9.09L17.05 9.09Q16.74 8.69 16.74 8.06L16.74 8.06L16.74 8.06Q16.74 7.48 17.11 7.06L17.11 7.06L17.11 7.06Q17.47 6.64 18.05 6.43L18.05 6.43L18.05 6.43Q18.63 6.22 19.28 6.22L19.28 6.22L19.28 6.22Q20.10 6.22 20.71 6.57L20.71 6.57L20.71 6.57Q21.32 6.92 21.32 7.55L21.32 7.55L21.32 7.55Q21.32 7.92 21.09 8.19L21.09 8.19L21.09 8.19Q20.86 8.46 20.48 8.46L20.48 8.46L20.48 8.46Q20.26 8.46 20.08 8.33L20.08 8.33L20.08 8.33Q19.91 8.20 19.91 8.13L19.91 8.13L19.91 8.13Q19.91 8.12 20.02 8.02L20.02 8.02L20.02 8.02Q20.13 7.92 20.22 7.79L20.22 7.79L20.22 7.79Q20.31 7.66 20.31 7.48L20.31 7.48L20.31 7.48Q20.29 7.10 19.94 6.89L19.94 6.89L19.94 6.89Q19.59 6.68 19.11 6.68L19.11 6.68L19.11 6.68Q18.58 6.68 18.18 6.92L18.18 6.92L18.18 6.92Q17.78 7.17 17.78 7.60L17.78 7.60L17.78 7.60Q17.78 7.99 17.95 8.23L17.95 8.23L17.95 8.23Q18.12 8.46 18.45 8.60L18.45 8.60L18.45 8.60Q18.79 8.74 19.52 8.97L19.52 8.97L19.52 8.97Q20.26 9.21 20.68 9.42L20.68 9.42L20.68 9.42Q21.10 9.62 21.34 9.96L21.34 9.96L21.34 9.96Q21.59 10.30 21.59 10.86L21.59 10.86L21.59 10.86Q21.59 11.44 21.25 11.91L21.25 11.91L21.25 11.91Q20.92 12.38 20.33 12.64L20.33 12.64L20.33 12.64Q19.74 12.89 19.01 12.89L19.01 12.89ZM25.19 12.96L25.19 12.96Q24.50 12.96 24.01 12.46L24.01 12.46L24.01 12.46Q23.52 11.96 23.52 11.02L23.52 11.02L23.52 6.90L22.71 6.93L22.71 6.93Q22.62 6.93 22.57 6.85L22.57 6.85L22.57 6.85Q22.51 6.78 22.51 6.68L22.51 6.68L22.51 6.68Q22.51 6.55 22.56 6.46L22.56 6.46L22.56 6.46Q22.61 6.37 22.71 6.36L22.71 6.36L22.71 6.36Q23.20 6.26 23.47 6.04L23.47 6.04L23.47 6.04Q23.74 5.82 23.87 5.57L23.87 5.57L23.87 5.57Q24.00 5.31 24.18 4.77L24.18 4.77L24.18 4.77Q24.25 4.59 24.49 4.59L24.49 4.59L24.49 4.59Q24.58 4.59 24.68 4.64L24.68 4.64L24.68 4.64Q24.78 4.69 24.78 4.79L24.78 4.79L24.68 6.38L26.32 6.29L26.35 6.29L26.35 6.29Q26.53 6.29 26.53 6.55L26.53 6.55L26.53 6.55Q26.53 6.71 26.48 6.84L26.48 6.84L26.48 6.84Q26.43 6.97 26.36 6.97L26.36 6.97L24.79 6.93L24.79 11.19L24.79 11.19Q24.79 11.65 24.98 11.96L24.98 11.96L24.98 11.96Q25.17 12.26 25.61 12.26L25.61 12.26L25.61 12.26Q26.04 12.26 26.38 12.11L26.38 12.11L26.38 12.11Q26.56 12.04 26.60 12.04L26.60 12.04L26.60 12.04Q26.70 12.04 26.75 12.12L26.75 12.12L26.75 12.12Q26.81 12.19 26.87 12.32L26.87 12.32L26.87 12.32Q26.88 12.35 26.88 12.39L26.88 12.39L26.88 12.39Q26.88 12.45 26.80 12.52L26.80 12.52L26.80 12.52Q26.39 12.78 26.03 12.87L26.03 12.87L26.03 12.87Q25.68 12.96 25.19 12.96L25.19 12.96ZM28.15 12.77L28.15 12.77Q28.06 12.77 27.99 12.68L27.99 12.68L27.99 12.68Q27.93 12.60 27.93 12.49L27.93 12.49L27.93 12.49Q27.94 12.31 28.01 12.27L28.01 12.27L28.01 12.27Q28.08 12.24 28.27 12.24L28.27 12.24L28.27 12.24Q28.63 12.24 28.78 12.11L28.78 12.11L28.78 12.11Q28.94 11.98 28.96 11.82L28.96 11.82L28.96 11.82Q28.98 11.65 28.98 11.28L28.98 11.28L28.98 8.08L28.98 8.08Q28.98 7.71 28.96 7.55L28.96 7.55L28.96 7.55Q28.94 7.38 28.78 7.25L28.78 7.25L28.78 7.25Q28.63 7.13 28.27 7.13L28.27 7.13L28.27 7.13Q28.10 7.13 28.01 7.08L28.01 7.08L28.01 7.08Q27.93 7.03 27.93 6.85L27.93 6.85L27.93 6.85Q27.93 6.76 27.99 6.69L27.99 6.69L27.99 6.69Q28.04 6.61 28.15 6.59L28.15 6.59L28.15 6.59Q29.04 6.47 29.67 6.23L29.67 6.23L29.67 6.23Q29.86 6.16 29.99 6.15L29.99 6.15L30.03 6.15L30.03 6.15Q30.25 6.15 30.25 6.41L30.25 6.41L30.25 11.28L30.25 11.28Q30.25 11.65 30.28 11.82L30.28 11.82L30.28 11.82Q30.31 11.98 30.46 12.11L30.46 12.11L30.46 12.11Q30.62 12.24 30.98 12.24L30.98 12.24L31.07 12.24L31.07 12.24Q31.18 12.24 31.23 12.28L31.23 12.28L31.23 12.28Q31.29 12.32 31.30 12.49L31.30 12.49L31.30 12.49Q31.30 12.60 31.25 12.68L31.25 12.68L31.25 12.68Q31.19 12.77 31.08 12.77L31.08 12.77L31.08 12.77Q30.27 12.73 29.61 12.73L29.61 12.73L29.61 12.73Q28.98 12.73 28.15 12.77L28.15 12.77ZM29.54 4.59L29.54 4.59Q29.15 4.59 28.88 4.35L28.88 4.35L28.88 4.35Q28.62 4.10 28.62 3.74L28.62 3.74L28.62 3.74Q28.62 3.42 28.94 3.16L28.94 3.16L28.94 3.16Q29.26 2.91 29.67 2.91L29.67 2.91L29.67 2.91Q30.02 2.91 30.24 3.16L30.24 3.16L30.24 3.16Q30.46 3.40 30.46 3.78L30.46 3.78L30.46 3.78Q30.46 4.12 30.20 4.35L30.20 4.35L30.20 4.35Q29.93 4.59 29.54 4.59L29.54 4.59ZM32.30 12.77L32.30 12.77Q32.20 12.77 32.14 12.68L32.14 12.68L32.14 12.68Q32.07 12.60 32.07 12.49L32.07 12.49L32.07 12.49Q32.09 12.31 32.16 12.27L32.16 12.27L32.16 12.27Q32.23 12.24 32.41 12.24L32.41 12.24L32.41 12.24Q32.77 12.24 32.93 12.11L32.93 12.11L32.93 12.11Q33.08 11.98 33.10 11.82L33.10 11.82L33.10 11.82Q33.12 11.65 33.12 11.28L33.12 11.28L33.12 8.08L33.12 8.08Q33.12 7.71 33.10 7.55L33.10 7.55L33.10 7.55Q33.08 7.38 32.93 7.25L32.93 7.25L32.93 7.25Q32.77 7.13 32.41 7.13L32.41 7.13L32.41 7.13Q32.24 7.13 32.16 7.08L32.16 7.08L32.16 7.08Q32.07 7.03 32.07 6.85L32.07 6.85L32.07 6.85Q32.07 6.76 32.13 6.69L32.13 6.69L32.13 6.69Q32.19 6.61 32.30 6.59L32.30 6.59L32.30 6.59Q33.21 6.45 33.80 6.23L33.80 6.23L33.80 6.23Q34.03 6.16 34.12 6.15L34.12 6.15L34.16 6.15L34.16 6.15Q34.38 6.15 34.38 6.41L34.38 6.41L34.38 7.29L34.43 7.29L34.43 7.29Q34.83 6.92 35.08 6.71L35.08 6.71L35.08 6.71Q35.34 6.51 35.73 6.36L35.73 6.36L35.73 6.36Q36.13 6.22 36.68 6.22L36.68 6.22L36.68 6.22Q37.63 6.22 38.19 6.79L38.19 6.79L38.19 6.79Q38.75 7.36 38.75 8.30L38.75 8.30L38.75 11.28L38.75 11.28Q38.75 11.65 38.78 11.82L38.78 11.82L38.78 11.82Q38.81 11.98 38.96 12.11L38.96 12.11L38.96 12.11Q39.12 12.24 39.48 12.24L39.48 12.24L39.56 12.24L39.56 12.24Q39.68 12.24 39.73 12.28L39.73 12.28L39.73 12.28Q39.79 12.32 39.80 12.49L39.80 12.49L39.80 12.49Q39.80 12.60 39.74 12.68L39.74 12.68L39.74 12.68Q39.68 12.77 39.58 12.77L39.58 12.77L39.58 12.77Q38.77 12.73 38.11 12.73L38.11 12.73L38.11 12.73Q37.48 12.73 36.65 12.77L36.65 12.77L36.65 12.77Q36.55 12.77 36.49 12.68L36.49 12.68L36.49 12.68Q36.43 12.60 36.43 12.49L36.43 12.49L36.43 12.49Q36.44 12.31 36.51 12.27L36.51 12.27L36.51 12.27Q36.57 12.24 36.75 12.24L36.75 12.24L36.75 12.24Q37.11 12.24 37.27 12.11L37.27 12.11L37.27 12.11Q37.42 11.98 37.45 11.82L37.45 11.82L37.45 11.82Q37.48 11.65 37.48 11.28L37.48 11.28L37.48 8.32L37.48 8.32Q37.48 7.67 37.07 7.33L37.07 7.33L37.07 7.33Q36.67 6.99 36.13 6.99L36.13 6.99L36.13 6.99Q35.49 6.99 35.03 7.30L35.03 7.30L35.03 7.30Q34.57 7.62 34.40 7.95L34.40 7.95L34.40 11.28L34.40 11.28Q34.40 11.65 34.43 11.82L34.43 11.82L34.43 11.82Q34.45 11.98 34.61 12.11L34.61 12.11L34.61 12.11Q34.76 12.24 35.13 12.24L35.13 12.24L35.21 12.24L35.21 12.24Q35.32 12.24 35.38 12.28L35.38 12.28L35.38 12.28Q35.43 12.32 35.45 12.49L35.45 12.49L35.45 12.49Q35.45 12.60 35.39 12.68L35.39 12.68L35.39 12.68Q35.34 12.77 35.22 12.77L35.22 12.77L35.22 12.77Q34.41 12.73 33.75 12.73L33.75 12.73L33.75 12.73Q33.12 12.73 32.30 12.77L32.30 12.77ZM43.33 15.78L43.33 15.78Q40.38 15.78 40.38 14.10L40.38 14.10L40.38 14.10Q40.38 13.62 40.68 13.27L40.68 13.27L40.68 13.27Q40.98 12.92 41.45 12.92L41.45 12.92L41.45 12.92Q41.65 12.92 41.82 13.00L41.82 13.00L41.82 13.00Q41.99 13.08 42.09 13.18L42.09 13.18L42.09 13.18Q42.20 13.29 42.20 13.34L42.20 13.34L42.20 13.34Q42.20 13.36 42.08 13.48L42.08 13.48L42.08 13.48Q41.96 13.59 41.87 13.77L41.87 13.77L41.87 13.77Q41.78 13.94 41.78 14.18L41.78 14.18L41.78 14.18Q41.78 15.26 43.62 15.26L43.62 15.26L43.62 15.26Q44.69 15.26 45.26 14.89L45.26 14.89L45.26 14.89Q45.84 14.52 45.84 13.79L45.84 13.79L45.84 13.79Q45.84 13.34 45.50 13.12L45.50 13.12L45.50 13.12Q45.16 12.89 44.66 12.83L44.66 12.83L44.66 12.83Q44.16 12.77 43.34 12.75L43.34 12.75L43.34 12.75Q42.35 12.73 41.93 12.66L41.93 12.66L41.93 12.66Q41.38 12.56 41.08 12.31L41.08 12.31L41.08 12.31Q40.78 12.05 40.78 11.52L40.78 11.52L40.78 11.52Q40.78 10.98 41.17 10.61L41.17 10.61L41.17 10.61Q41.55 10.23 42.27 10.23L42.27 10.23L42.27 10.23Q41.44 9.91 41.10 9.43L41.10 9.43L41.10 9.43Q40.77 8.95 40.77 8.34L40.77 8.34L40.77 8.34Q40.77 7.74 41.11 7.25L41.11 7.25L41.11 7.25Q41.45 6.76 42.07 6.48L42.07 6.48L42.07 6.48Q42.69 6.20 43.47 6.20L43.47 6.20L43.47 6.20Q44.48 6.20 45.02 6.48L45.02 6.48L46.94 6.12L46.97 6.12L46.97 6.12Q47.21 6.12 47.21 6.45L47.21 6.45L47.21 6.45Q47.21 6.65 47.15 6.82L47.15 6.82L47.15 6.82Q47.08 6.99 47.00 6.99L47.00 6.99L45.61 6.93L45.61 6.96L45.61 6.96Q45.85 7.20 46.02 7.59L46.02 7.59L46.02 7.59Q46.19 7.98 46.19 8.33L46.19 8.33L46.19 8.33Q46.19 8.97 45.82 9.47L45.82 9.47L45.82 9.47Q45.44 9.97 44.84 10.23L44.84 10.23L44.84 10.23Q44.24 10.50 43.58 10.50L43.58 10.50L42.97 10.50L42.97 10.50Q42.24 10.50 41.91 10.64L41.91 10.64L41.91 10.64Q41.58 10.78 41.58 11.10L41.58 11.10L41.58 11.10Q41.58 11.37 41.76 11.49L41.76 11.49L41.76 11.49Q41.94 11.62 42.39 11.65L42.39 11.65L44.31 11.72L44.31 11.72Q45.78 11.77 46.43 12.19L46.43 12.19L46.43 12.19Q47.08 12.60 47.08 13.44L47.08 13.44L47.08 13.44Q47.08 14.53 46.06 15.16L46.06 15.16L46.06 15.16Q45.04 15.78 43.33 15.78L43.33 15.78ZM43.47 10.09L43.47 10.09Q44.13 10.09 44.53 9.63L44.53 9.63L44.53 9.63Q44.93 9.16 44.93 8.33L44.93 8.33L44.93 8.33Q44.93 7.56 44.51 7.10L44.51 7.10L44.51 7.10Q44.10 6.64 43.46 6.64L43.46 6.64L43.46 6.64Q42.83 6.64 42.42 7.08L42.42 7.08L42.42 7.08Q42.01 7.53 42.01 8.30L42.01 8.30L42.01 8.30Q42.01 9.14 42.42 9.62L42.42 9.62L42.42 9.62Q42.83 10.09 43.47 10.09L43.47 10.09Z"></path></g><defs data-v-fde0c5aa=""><!----></defs><g data-v-fde0c5aa="" id="5b67c53f-6426-4765-b97b-4ef78dd1bca0" stroke="none" fill="#ffffff" transform="matrix(1.3477028582817467,0,0,1.3477028582817467,28.679295219271566,81.94100565677178)"><path d="M25.9 30.2c0 .8.2 1.7.7 2.5.6 1 .9 1.7 1 2.2-1.2-.5-3.1-1-5.7-1.7s-4.5-1.3-5.7-1.7c-4.2-1.6-6.8-3.9-7.8-7 2.2.7 5.1 1.6 8.8 2.8 4.3 1.5 7.2 2.4 8.7 2.9zm3.4 6.7c.1.7.6 1.6 1.3 2.6.8 1 1.2 1.8 1.4 2.5-.6-.2-2.3-.7-5.2-1.6-2.1-.7-3.8-1.2-5.1-1.8-3.7-1.6-6.1-3.7-7.2-6.4 1.8.2 4.2.9 7.3 2 3.8 1.5 6.3 2.4 7.5 2.7zM22.6 40c7.3 1.3 12 3.9 14.1 7.7-3.9-.8-6.7-1.5-8.3-2.2-3.2-1.3-5.2-3.2-5.8-5.5zm42.6 5.7c.3.2.1.8-.8 1.8-.8.8-1.5 1.4-2.2 1.9-4.7 3.1-8.8 4.6-12.1 4.4-4.6-.3-9.2-3-13.8-8.1.6 0 1.4.2 2.5.5 1 .3 1.9.5 2.6.5-3.1-1.1-5.2-2.1-6.4-2.8-2-1.4-3.3-3.2-3.7-5.6.7 0 1.4.2 2.4.7.9.4 1.7.7 2.3.7-2.8-1.2-4.9-2.4-6.2-3.6-1.9-1.7-2.9-3.9-3.3-6.5 1.8.8 4.4 1.8 7.7 2.9 3.9 1.3 6.5 2.3 7.8 2.8 1.9 5.1 4.8 9 8.7 11.8 4.3-2.8 7.2-6.8 8.7-11.8.8-.3 3.4-1.2 7.9-2.7 3.2-1.1 5.8-2.1 7.6-3 0 2.4-.9 4.5-2.7 6.3-1.7 1.8-3.8 2.9-6.4 3.4.5.3 1.2.2 2.2-.3 1.1-.5 2-.8 2.6-.7-1.1 4.4-4.5 7.1-10.1 8.1.6.4 1.3.4 2.3 0 1.3-.5 2.1-.7 2.4-.7zm-21.8 9.4c.4.1.8.6 1.2 1.5.4.9.8 1.4 1.2 1.5-3.1 6.5-4.7 10-5 10.8-.7-.2-1.3-.6-1.9-1.4-.8-.9-1.3-1.5-1.5-1.7.6-1.3 1.6-3.1 3-5.4 1.4-2.3 2.4-4 3-5.3zm2.7 4c.3.2.7.6 1.2 1.2s.9 1 1.2 1.2c-1.8 7.2-2.8 11.1-3 11.8-.7-.2-1.4-.6-2.2-1.4-.9-.9-1.6-1.5-1.9-1.7.1-.2 1.6-3.9 4.7-11.1zm5 2.7c-2.6-1.4-5.3-4.7-8.1-9.7 2.4 1.1 5 1.7 7.6 1.8 3.1.1 5.7-.6 7.9-2.2-1.2 3.1-3.6 6.4-7.4 10.1zm-3.7-20.2c-.6.1-1 0-1.4-.3-.6-.5-.9-.7-.9-.8.6-.9 1.1-2.6 1.4-5 0-.2-.2-.3-.5-.3h-.8c.6-2.4 2-4.2 4.3-5.4 2.4-1.2 4.9-1.2 7.5 0 .2 1.5-.1 2.8-1 3.7-.4 0-.9-.1-1.4-.4-.4-.2-.8-.2-1.3.1.1.5.3 1.2.4 2.1.1 1 .3 1.7.4 2.1.4 1.6 1.3 2.4 2.5 2.5 0 .8-.7 1.3-2 1.4-.4 0-.4.2 0 .5.5.3.7.5.7.5 0 .4-.6 1.1-1.9 2.3-1.2 1.1-1.9 1.7-2.1 1.8-.8 0-1.7-.5-2.6-1.7-1.1-1.2-1.4-2.2-1.3-3.1zm1.7 20.5c.8.5 1.3.7 1.7.7a55414863459046760 55414863459046760 0 0 1 4.4 11c-.2.3-1.5 1.2-4 2.7-.7-.2-1.4-.5-2.3-.9-1.1-.6-1.8-.9-2.1-1.1.1-1.7.5-3.8 1.1-6.3.6-2.8 1-4.8 1.2-6.1zm4-31.9c-.7 1.2-1.1 2.1-1.2 2.6-.4 1.1-.2 1.6.5 1.5-.4-.4-.3-1.1.2-2.2s.7-1.7.5-1.9zm0 31.6c.1-.4.4-.9 1-1.4.6-.5.9-.9 1-1.3.8 1.1 1.6 2.9 2.6 5.3 1 2.7 1.9 4.5 2.4 5.4-1.2 1.8-2.5 2.9-4.1 3.4-.3-1.5-.8-3.4-1.5-5.7-.6-2.9-1.1-4.8-1.4-5.7zm3-3.4c0-.6.3-1.2.8-1.8.5-.6.8-1.2.9-1.6.9 1.2 2 2.9 3.3 5.1 1.7 3 2.8 4.7 3.1 5.3.1-.3-.8.9-2.7 3.4.2.2-1.6-3.3-5.4-10.4zM65.6 48c0-.4.5-1.1 1.4-2.3.9-1.2 1.5-2.1 1.7-2.8 1.3-.2 3-.7 5.3-1.5 2.2-.8 4-1.3 5.4-1.5-.7 2.3-2.6 4.1-5.6 5.3-.9.4-2.2.8-4.1 1.4-1.9.6-3.3 1.1-4.1 1.4zm4.7-6c.3-2.8 2.4-5 6.4-6.6 1-.4 2.8-1 5.3-1.8 2.3-.7 4-1.2 5-1.8-.8 3-3 5.2-6.7 6.7-1 .4-2.7 1-5 1.7s-4 1.3-5 1.8zm6-12.1c2.1-.5 5-1.4 8.6-2.6 3.8-1.3 6.7-2.3 8.5-2.7-1.1 3-3.8 5.4-8 7-1.3.5-3.2 1.1-5.7 1.8-2.8.6-4.7 1.2-5.7 1.5.5-.7 1.3-2.4 2.3-5z"></path></g><defs data-v-fde0c5aa=""><!----></defs><g data-v-fde0c5aa="" id="93efebcf-5537-4354-a35c-ce927802aaa7" fill="#ffffff" transform="matrix(1.9139805690932334,0,0,1.9139805690932334,166.40634428470287,157.21804819637367)"><path d="M0.84 12.77L0.84 12.77Q0.73 12.77 0.67 12.68L0.67 12.68L0.67 12.68Q0.60 12.59 0.60 12.46L0.60 12.46L0.60 12.46Q0.62 12.25 0.69 12.21L0.69 12.21L0.69 12.21Q0.76 12.17 0.95 12.17L0.95 12.17L0.95 12.17Q1.36 12.17 1.55 12.02L1.55 12.02L1.55 12.02Q1.75 11.87 1.80 11.66L1.80 11.66L1.80 11.66Q1.85 11.44 1.86 11.09L1.86 11.09L1.86 5.53L1.86 5.53Q1.85 5.18 1.80 4.96L1.80 4.96L1.80 4.96Q1.75 4.75 1.55 4.60L1.55 4.60L1.55 4.60Q1.36 4.45 0.95 4.45L0.95 4.45L0.87 4.45L0.87 4.45Q0.73 4.45 0.67 4.40L0.67 4.40L0.67 4.40Q0.62 4.35 0.60 4.16L0.60 4.16L0.60 4.16Q0.60 4.03 0.67 3.94L0.67 3.94L0.67 3.94Q0.73 3.85 0.84 3.85L0.84 3.85L0.84 3.85Q1.76 3.89 2.51 3.89L2.51 3.89L4.69 3.89L4.69 3.89Q6.03 3.89 7.13 4.43L7.13 4.43L7.13 4.43Q8.23 4.97 8.87 5.98L8.87 5.98L8.87 5.98Q9.51 6.99 9.51 8.36L9.51 8.36L9.51 8.36Q9.51 9.79 8.79 10.77L8.79 10.77L8.79 10.77Q8.06 11.76 6.91 12.24L6.91 12.24L6.91 12.24Q5.75 12.73 4.44 12.73L4.44 12.73L2.51 12.73L2.51 12.73Q1.76 12.73 0.84 12.77L0.84 12.77ZM4.65 12.21L4.65 12.21Q6.29 12.21 7.05 11.19L7.05 11.19L7.05 11.19Q7.81 10.18 7.81 8.36L7.81 8.36L7.81 8.36Q7.81 7.21 7.40 6.31L7.40 6.31L7.40 6.31Q6.99 5.40 6.20 4.90L6.20 4.90L6.20 4.90Q5.42 4.40 4.34 4.40L4.34 4.40L3.25 4.41L3.25 11.26L3.25 11.26Q3.25 11.80 3.58 12.01L3.58 12.01L3.58 12.01Q3.91 12.21 4.65 12.21L4.65 12.21ZM14.04 12.89L14.04 12.89Q12.99 12.89 12.26 12.45L12.26 12.45L12.26 12.45Q11.52 12.00 11.14 11.23L11.14 11.23L11.14 11.23Q10.77 10.46 10.77 9.52L10.77 9.52L10.77 9.52Q10.77 8.69 11.15 7.93L11.15 7.93L11.15 7.93Q11.54 7.17 12.25 6.69L12.25 6.69L12.25 6.69Q12.96 6.22 13.89 6.22L13.89 6.22L13.89 6.22Q15.13 6.22 15.81 6.85L15.81 6.85L15.81 6.85Q16.48 7.49 16.58 8.57L16.58 8.57L16.58 8.57Q16.58 9.03 16.32 9.20L16.32 9.20L16.32 9.20Q16.07 9.37 15.60 9.37L15.60 9.37L12.19 9.37L12.19 9.37Q12.19 10.67 12.73 11.43L12.73 11.43L12.73 11.43Q13.27 12.19 14.41 12.19L14.41 12.19L14.41 12.19Q15.01 12.19 15.43 11.94L15.43 11.94L15.43 11.94Q15.85 11.68 16.23 11.06L16.23 11.06L16.23 11.06Q16.30 10.99 16.37 10.99L16.37 10.99L16.37 10.99Q16.46 10.99 16.53 11.05L16.53 11.05L16.53 11.05Q16.67 11.13 16.67 11.30L16.67 11.30L16.67 11.30Q16.67 11.38 16.65 11.42L16.65 11.42L16.65 11.42Q16.21 12.12 15.55 12.51L15.55 12.51L15.55 12.51Q14.88 12.89 14.04 12.89L14.04 12.89ZM12.19 8.83L14.48 8.83L14.48 8.83Q15.19 8.83 15.23 8.25L15.23 8.25L15.23 8.25Q15.23 7.60 14.88 7.15L14.88 7.15L14.88 7.15Q14.53 6.71 13.89 6.71L13.89 6.71L13.89 6.71Q13.17 6.71 12.71 7.27L12.71 7.27L12.71 7.27Q12.25 7.84 12.19 8.83L12.19 8.83ZM20.27 12.89L20.27 12.89Q19.15 12.89 18.45 12.50L18.45 12.50L18.45 12.50Q17.75 12.11 17.75 11.40L17.75 11.40L17.75 11.40Q17.75 10.99 18.00 10.74L18.00 10.74L18.00 10.74Q18.24 10.49 18.63 10.49L18.63 10.49L18.63 10.49Q18.86 10.49 19.03 10.61L19.03 10.61L19.03 10.61Q19.21 10.74 19.21 10.81L19.21 10.81L19.21 10.81Q19.21 10.82 19.05 10.99L19.05 10.99L19.05 10.99Q18.89 11.16 18.89 11.47L18.89 11.47L18.89 11.47Q18.89 11.89 19.27 12.13L19.27 12.13L19.27 12.13Q19.66 12.38 20.38 12.38L20.38 12.38L20.38 12.38Q21.04 12.38 21.41 12.09L21.41 12.09L21.41 12.09Q21.78 11.80 21.78 11.28L21.78 11.28L21.78 11.28Q21.78 10.93 21.57 10.71L21.57 10.71L21.57 10.71Q21.36 10.49 21.05 10.36L21.05 10.36L21.05 10.36Q20.73 10.23 20.17 10.07L20.17 10.07L20.17 10.07Q19.49 9.87 19.05 9.67L19.05 9.67L19.05 9.67Q18.62 9.48 18.31 9.09L18.31 9.09L18.31 9.09Q18.00 8.69 18.00 8.06L18.00 8.06L18.00 8.06Q18.00 7.48 18.37 7.06L18.37 7.06L18.37 7.06Q18.73 6.64 19.31 6.43L19.31 6.43L19.31 6.43Q19.89 6.22 20.54 6.22L20.54 6.22L20.54 6.22Q21.36 6.22 21.97 6.57L21.97 6.57L21.97 6.57Q22.58 6.92 22.58 7.55L22.58 7.55L22.58 7.55Q22.58 7.92 22.35 8.19L22.35 8.19L22.35 8.19Q22.12 8.46 21.74 8.46L21.74 8.46L21.74 8.46Q21.52 8.46 21.34 8.33L21.34 8.33L21.34 8.33Q21.17 8.20 21.17 8.13L21.17 8.13L21.17 8.13Q21.17 8.12 21.28 8.02L21.28 8.02L21.28 8.02Q21.39 7.92 21.48 7.79L21.48 7.79L21.48 7.79Q21.57 7.66 21.57 7.48L21.57 7.48L21.57 7.48Q21.55 7.10 21.20 6.89L21.20 6.89L21.20 6.89Q20.85 6.68 20.37 6.68L20.37 6.68L20.37 6.68Q19.84 6.68 19.44 6.92L19.44 6.92L19.44 6.92Q19.04 7.17 19.04 7.60L19.04 7.60L19.04 7.60Q19.04 7.99 19.21 8.23L19.21 8.23L19.21 8.23Q19.38 8.46 19.71 8.60L19.71 8.60L19.71 8.60Q20.05 8.74 20.78 8.97L20.78 8.97L20.78 8.97Q21.52 9.21 21.94 9.42L21.94 9.42L21.94 9.42Q22.36 9.62 22.60 9.96L22.60 9.96L22.60 9.96Q22.85 10.30 22.85 10.86L22.85 10.86L22.85 10.86Q22.85 11.44 22.51 11.91L22.51 11.91L22.51 11.91Q22.18 12.38 21.59 12.64L21.59 12.64L21.59 12.64Q21 12.89 20.27 12.89L20.27 12.89ZM24.11 12.77L24.11 12.77Q24.01 12.77 23.95 12.68L23.95 12.68L23.95 12.68Q23.88 12.60 23.88 12.49L23.88 12.49L23.88 12.49Q23.90 12.31 23.97 12.27L23.97 12.27L23.97 12.27Q24.04 12.24 24.22 12.24L24.22 12.24L24.22 12.24Q24.58 12.24 24.74 12.11L24.74 12.11L24.74 12.11Q24.89 11.98 24.91 11.82L24.91 11.82L24.91 11.82Q24.93 11.65 24.93 11.28L24.93 11.28L24.93 8.08L24.93 8.08Q24.93 7.71 24.91 7.55L24.91 7.55L24.91 7.55Q24.89 7.38 24.74 7.25L24.74 7.25L24.74 7.25Q24.58 7.13 24.22 7.13L24.22 7.13L24.22 7.13Q24.05 7.13 23.97 7.08L23.97 7.08L23.97 7.08Q23.88 7.03 23.88 6.85L23.88 6.85L23.88 6.85Q23.88 6.76 23.94 6.69L23.94 6.69L23.94 6.69Q24.00 6.61 24.11 6.59L24.11 6.59L24.11 6.59Q24.99 6.47 25.62 6.23L25.62 6.23L25.62 6.23Q25.82 6.16 25.94 6.15L25.94 6.15L25.98 6.15L25.98 6.15Q26.21 6.15 26.21 6.41L26.21 6.41L26.21 11.28L26.21 11.28Q26.21 11.65 26.24 11.82L26.24 11.82L26.24 11.82Q26.26 11.98 26.42 12.11L26.42 12.11L26.42 12.11Q26.57 12.24 26.94 12.24L26.94 12.24L27.02 12.24L27.02 12.24Q27.13 12.24 27.19 12.28L27.19 12.28L27.19 12.28Q27.24 12.32 27.26 12.49L27.26 12.49L27.26 12.49Q27.26 12.60 27.20 12.68L27.20 12.68L27.20 12.68Q27.15 12.77 27.03 12.77L27.03 12.77L27.03 12.77Q26.22 12.73 25.56 12.73L25.56 12.73L25.56 12.73Q24.93 12.73 24.11 12.77L24.11 12.77ZM25.49 4.59L25.49 4.59Q25.10 4.59 24.84 4.35L24.84 4.35L24.84 4.35Q24.57 4.10 24.57 3.74L24.57 3.74L24.57 3.74Q24.57 3.42 24.89 3.16L24.89 3.16L24.89 3.16Q25.21 2.91 25.62 2.91L25.62 2.91L25.62 2.91Q25.97 2.91 26.19 3.16L26.19 3.16L26.19 3.16Q26.42 3.40 26.42 3.78L26.42 3.78L26.42 3.78Q26.42 4.12 26.15 4.35L26.15 4.35L26.15 4.35Q25.89 4.59 25.49 4.59L25.49 4.59ZM30.90 15.78L30.90 15.78Q27.94 15.78 27.94 14.10L27.94 14.10L27.94 14.10Q27.94 13.62 28.24 13.27L28.24 13.27L28.24 13.27Q28.55 12.92 29.02 12.92L29.02 12.92L29.02 12.92Q29.22 12.92 29.39 13.00L29.39 13.00L29.39 13.00Q29.55 13.08 29.66 13.18L29.66 13.18L29.66 13.18Q29.76 13.29 29.76 13.34L29.76 13.34L29.76 13.34Q29.76 13.36 29.64 13.48L29.64 13.48L29.64 13.48Q29.53 13.59 29.43 13.77L29.43 13.77L29.43 13.77Q29.34 13.94 29.34 14.18L29.34 14.18L29.34 14.18Q29.34 15.26 31.19 15.26L31.19 15.26L31.19 15.26Q32.26 15.26 32.83 14.89L32.83 14.89L32.83 14.89Q33.40 14.52 33.40 13.79L33.40 13.79L33.40 13.79Q33.40 13.34 33.07 13.12L33.07 13.12L33.07 13.12Q32.73 12.89 32.23 12.83L32.23 12.83L32.23 12.83Q31.72 12.77 30.91 12.75L30.91 12.75L30.91 12.75Q29.92 12.73 29.50 12.66L29.50 12.66L29.50 12.66Q28.95 12.56 28.65 12.31L28.65 12.31L28.65 12.31Q28.35 12.05 28.35 11.52L28.35 11.52L28.35 11.52Q28.35 10.98 28.73 10.61L28.73 10.61L28.73 10.61Q29.12 10.23 29.83 10.23L29.83 10.23L29.83 10.23Q29.01 9.91 28.67 9.43L28.67 9.43L28.67 9.43Q28.34 8.95 28.34 8.34L28.34 8.34L28.34 8.34Q28.34 7.74 28.68 7.25L28.68 7.25L28.68 7.25Q29.02 6.76 29.64 6.48L29.64 6.48L29.64 6.48Q30.25 6.20 31.04 6.20L31.04 6.20L31.04 6.20Q32.05 6.20 32.59 6.48L32.59 6.48L34.51 6.12L34.54 6.12L34.54 6.12Q34.78 6.12 34.78 6.45L34.78 6.45L34.78 6.45Q34.78 6.65 34.71 6.82L34.71 6.82L34.71 6.82Q34.65 6.99 34.57 6.99L34.57 6.99L33.18 6.93L33.18 6.96L33.18 6.96Q33.42 7.20 33.59 7.59L33.59 7.59L33.59 7.59Q33.75 7.98 33.75 8.33L33.75 8.33L33.75 8.33Q33.75 8.97 33.38 9.47L33.38 9.47L33.38 9.47Q33.01 9.97 32.41 10.23L32.41 10.23L32.41 10.23Q31.81 10.50 31.15 10.50L31.15 10.50L30.53 10.50L30.53 10.50Q29.81 10.50 29.48 10.64L29.48 10.64L29.48 10.64Q29.15 10.78 29.15 11.10L29.15 11.10L29.15 11.10Q29.15 11.37 29.33 11.49L29.33 11.49L29.33 11.49Q29.51 11.62 29.96 11.65L29.96 11.65L31.88 11.72L31.88 11.72Q33.35 11.77 34.00 12.19L34.00 12.19L34.00 12.19Q34.65 12.60 34.65 13.44L34.65 13.44L34.65 13.44Q34.65 14.53 33.63 15.16L33.63 15.16L33.63 15.16Q32.61 15.78 30.90 15.78L30.90 15.78ZM31.04 10.09L31.04 10.09Q31.70 10.09 32.09 9.63L32.09 9.63L32.09 9.63Q32.49 9.16 32.49 8.33L32.49 8.33L32.49 8.33Q32.49 7.56 32.08 7.10L32.08 7.10L32.08 7.10Q31.67 6.64 31.02 6.64L31.02 6.64L31.02 6.64Q30.39 6.64 29.99 7.08L29.99 7.08L29.99 7.08Q29.58 7.53 29.58 8.30L29.58 8.30L29.58 8.30Q29.58 9.14 29.99 9.62L29.99 9.62L29.99 9.62Q30.39 10.09 31.04 10.09L31.04 10.09ZM35.57 12.77L35.57 12.77Q35.48 12.77 35.41 12.68L35.41 12.68L35.41 12.68Q35.35 12.60 35.35 12.49L35.35 12.49L35.35 12.49Q35.36 12.31 35.43 12.27L35.43 12.27L35.43 12.27Q35.50 12.24 35.69 12.24L35.69 12.24L35.69 12.24Q36.05 12.24 36.20 12.11L36.20 12.11L36.20 12.11Q36.36 11.98 36.38 11.82L36.38 11.82L36.38 11.82Q36.40 11.65 36.40 11.28L36.40 11.28L36.40 8.08L36.40 8.08Q36.40 7.71 36.38 7.55L36.38 7.55L36.38 7.55Q36.36 7.38 36.20 7.25L36.20 7.25L36.20 7.25Q36.05 7.13 35.69 7.13L35.69 7.13L35.69 7.13Q35.52 7.13 35.43 7.08L35.43 7.08L35.43 7.08Q35.35 7.03 35.35 6.85L35.35 6.85L35.35 6.85Q35.35 6.76 35.41 6.69L35.41 6.69L35.41 6.69Q35.46 6.61 35.57 6.59L35.57 6.59L35.57 6.59Q36.48 6.45 37.07 6.23L37.07 6.23L37.07 6.23Q37.31 6.16 37.39 6.15L37.39 6.15L37.44 6.15L37.44 6.15Q37.66 6.15 37.66 6.41L37.66 6.41L37.66 7.29L37.70 7.29L37.70 7.29Q38.11 6.92 38.36 6.71L38.36 6.71L38.36 6.71Q38.61 6.51 39.01 6.36L39.01 6.36L39.01 6.36Q39.41 6.22 39.96 6.22L39.96 6.22L39.96 6.22Q40.91 6.22 41.47 6.79L41.47 6.79L41.47 6.79Q42.03 7.36 42.03 8.30L42.03 8.30L42.03 11.28L42.03 11.28Q42.03 11.65 42.06 11.82L42.06 11.82L42.06 11.82Q42.08 11.98 42.24 12.11L42.24 12.11L42.24 12.11Q42.39 12.24 42.76 12.24L42.76 12.24L42.84 12.24L42.84 12.24Q42.95 12.24 43.01 12.28L43.01 12.28L43.01 12.28Q43.06 12.32 43.08 12.49L43.08 12.49L43.08 12.49Q43.08 12.60 43.02 12.68L43.02 12.68L43.02 12.68Q42.95 12.77 42.85 12.77L42.85 12.77L42.85 12.77Q42.04 12.73 41.38 12.73L41.38 12.73L41.38 12.73Q40.75 12.73 39.93 12.77L39.93 12.77L39.93 12.77Q39.83 12.77 39.77 12.68L39.77 12.68L39.77 12.68Q39.70 12.60 39.70 12.49L39.70 12.49L39.70 12.49Q39.72 12.31 39.78 12.27L39.78 12.27L39.78 12.27Q39.84 12.24 40.03 12.24L40.03 12.24L40.03 12.24Q40.39 12.24 40.54 12.11L40.54 12.11L40.54 12.11Q40.70 11.98 40.73 11.82L40.73 11.82L40.73 11.82Q40.75 11.65 40.75 11.28L40.75 11.28L40.75 8.32L40.75 8.32Q40.75 7.67 40.35 7.33L40.35 7.33L40.35 7.33Q39.94 6.99 39.41 6.99L39.41 6.99L39.41 6.99Q38.77 6.99 38.30 7.30L38.30 7.30L38.30 7.30Q37.84 7.62 37.67 7.95L37.67 7.95L37.67 11.28L37.67 11.28Q37.67 11.65 37.70 11.82L37.70 11.82L37.70 11.82Q37.73 11.98 37.88 12.11L37.88 12.11L37.88 12.11Q38.04 12.24 38.40 12.24L38.40 12.24L38.49 12.24L38.49 12.24Q38.60 12.24 38.65 12.28L38.65 12.28L38.65 12.28Q38.71 12.32 38.72 12.49L38.72 12.49L38.72 12.49Q38.72 12.60 38.67 12.68L38.67 12.68L38.67 12.68Q38.61 12.77 38.50 12.77L38.50 12.77L38.50 12.77Q37.69 12.73 37.03 12.73L37.03 12.73L37.03 12.73Q36.40 12.73 35.57 12.77L35.57 12.77ZM46.33 12.89L46.33 12.89Q45.21 12.89 44.51 12.50L44.51 12.50L44.51 12.50Q43.81 12.11 43.81 11.40L43.81 11.40L43.81 11.40Q43.81 10.99 44.05 10.74L44.05 10.74L44.05 10.74Q44.30 10.49 44.69 10.49L44.69 10.49L44.69 10.49Q44.91 10.49 45.09 10.61L45.09 10.61L45.09 10.61Q45.26 10.74 45.26 10.81L45.26 10.81L45.26 10.81Q45.26 10.82 45.10 10.99L45.10 10.99L45.10 10.99Q44.94 11.16 44.94 11.47L44.94 11.47L44.94 11.47Q44.94 11.89 45.33 12.13L45.33 12.13L45.33 12.13Q45.71 12.38 46.44 12.38L46.44 12.38L46.44 12.38Q47.10 12.38 47.47 12.09L47.47 12.09L47.47 12.09Q47.84 11.80 47.84 11.28L47.84 11.28L47.84 11.28Q47.84 10.93 47.63 10.71L47.63 10.71L47.63 10.71Q47.42 10.49 47.10 10.36L47.10 10.36L47.10 10.36Q46.79 10.23 46.23 10.07L46.23 10.07L46.23 10.07Q45.54 9.87 45.11 9.67L45.11 9.67L45.11 9.67Q44.67 9.48 44.37 9.09L44.37 9.09L44.37 9.09Q44.06 8.69 44.06 8.06L44.06 8.06L44.06 8.06Q44.06 7.48 44.42 7.06L44.42 7.06L44.42 7.06Q44.79 6.64 45.37 6.43L45.37 6.43L45.37 6.43Q45.95 6.22 46.59 6.22L46.59 6.22L46.59 6.22Q47.42 6.22 48.03 6.57L48.03 6.57L48.03 6.57Q48.64 6.92 48.64 7.55L48.64 7.55L48.64 7.55Q48.64 7.92 48.41 8.19L48.41 8.19L48.41 8.19Q48.17 8.46 47.80 8.46L47.80 8.46L47.80 8.46Q47.57 8.46 47.40 8.33L47.40 8.33L47.40 8.33Q47.22 8.20 47.22 8.13L47.22 8.13L47.22 8.13Q47.22 8.12 47.33 8.02L47.33 8.02L47.33 8.02Q47.45 7.92 47.54 7.79L47.54 7.79L47.54 7.79Q47.63 7.66 47.63 7.48L47.63 7.48L47.63 7.48Q47.60 7.10 47.25 6.89L47.25 6.89L47.25 6.89Q46.90 6.68 46.42 6.68L46.42 6.68L46.42 6.68Q45.89 6.68 45.49 6.92L45.49 6.92L45.49 6.92Q45.09 7.17 45.09 7.60L45.09 7.60L45.09 7.60Q45.09 7.99 45.26 8.23L45.26 8.23L45.26 8.23Q45.43 8.46 45.77 8.60L45.77 8.60L45.77 8.60Q46.10 8.74 46.83 8.97L46.83 8.97L46.83 8.97Q47.57 9.21 47.99 9.42L47.99 9.42L47.99 9.42Q48.41 9.62 48.66 9.96L48.66 9.96L48.66 9.96Q48.90 10.30 48.90 10.86L48.90 10.86L48.90 10.86Q48.90 11.44 48.57 11.91L48.57 11.91L48.57 11.91Q48.23 12.38 47.64 12.64L47.64 12.64L47.64 12.64Q47.05 12.89 46.33 12.89L46.33 12.89Z"></path></g></svg>