<svg data-v-423bf9ae="" xmlns="http://www.w3.org/2000/svg" viewBox="0 0 98.07691427377553 60" class="icon"><!----><!----><!----><!----><g data-v-423bf9ae="" id="05be17de-f207-4b49-a453-20be7fa2bf43" transform="matrix(1.1538461538461537,0,0,1.1538461538461537,-9.692308334203858,-28.269230769230766)" stroke="none" fill="white"><path d="M25.9 30.2c0 .8.2 1.7.7 2.5.6 1 .9 1.7 1 2.2-1.2-.5-3.1-1-5.7-1.7s-4.5-1.3-5.7-1.7c-4.2-1.6-6.8-3.9-7.8-7 2.2.7 5.1 1.6 8.8 2.8 4.3 1.5 7.2 2.4 8.7 2.9zm3.4 6.7c.1.7.6 1.6 1.3 2.6.8 1 1.2 1.8 1.4 2.5-.6-.2-2.3-.7-5.2-1.6-2.1-.7-3.8-1.2-5.1-1.8-3.7-1.6-6.1-3.7-7.2-6.4 1.8.2 4.2.9 7.3 2 3.8 1.5 6.3 2.4 7.5 2.7zM22.6 40c7.3 1.3 12 3.9 14.1 7.7-3.9-.8-6.7-1.5-8.3-2.2-3.2-1.3-5.2-3.2-5.8-5.5zm42.6 5.7c.3.2.1.8-.8 1.8-.8.8-1.5 1.4-2.2 1.9-4.7 3.1-8.8 4.6-12.1 4.4-4.6-.3-9.2-3-13.8-8.1.6 0 1.4.2 2.5.5 1 .3 1.9.5 2.6.5-3.1-1.1-5.2-2.1-6.4-2.8-2-1.4-3.3-3.2-3.7-5.6.7 0 1.4.2 2.4.7.9.4 1.7.7 2.3.7-2.8-1.2-4.9-2.4-6.2-3.6-1.9-1.7-2.9-3.9-3.3-6.5 1.8.8 4.4 1.8 7.7 2.9 3.9 1.3 6.5 2.3 7.8 2.8 1.9 5.1 4.8 9 8.7 11.8 4.3-2.8 7.2-6.8 8.7-11.8.8-.3 3.4-1.2 7.9-2.7 3.2-1.1 5.8-2.1 7.6-3 0 2.4-.9 4.5-2.7 6.3-1.7 1.8-3.8 2.9-6.4 3.4.5.3 1.2.2 2.2-.3 1.1-.5 2-.8 2.6-.7-1.1 4.4-4.5 7.1-10.1 8.1.6.4 1.3.4 2.3 0 1.3-.5 2.1-.7 2.4-.7zm-21.8 9.4c.4.1.8.6 1.2 1.5.4.9.8 1.4 1.2 1.5-3.1 6.5-4.7 10-5 10.8-.7-.2-1.3-.6-1.9-1.4-.8-.9-1.3-1.5-1.5-1.7.6-1.3 1.6-3.1 3-5.4 1.4-2.3 2.4-4 3-5.3zm2.7 4c.3.2.7.6 1.2 1.2s.9 1 1.2 1.2c-1.8 7.2-2.8 11.1-3 11.8-.7-.2-1.4-.6-2.2-1.4-.9-.9-1.6-1.5-1.9-1.7.1-.2 1.6-3.9 4.7-11.1zm5 2.7c-2.6-1.4-5.3-4.7-8.1-9.7 2.4 1.1 5 1.7 7.6 1.8 3.1.1 5.7-.6 7.9-2.2-1.2 3.1-3.6 6.4-7.4 10.1zm-3.7-20.2c-.6.1-1 0-1.4-.3-.6-.5-.9-.7-.9-.8.6-.9 1.1-2.6 1.4-5 0-.2-.2-.3-.5-.3h-.8c.6-2.4 2-4.2 4.3-5.4 2.4-1.2 4.9-1.2 7.5 0 .2 1.5-.1 2.8-1 3.7-.4 0-.9-.1-1.4-.4-.4-.2-.8-.2-1.3.1.1.5.3 1.2.4 2.1.1 1 .3 1.7.4 2.1.4 1.6 1.3 2.4 2.5 2.5 0 .8-.7 1.3-2 1.4-.4 0-.4.2 0 .5.5.3.7.5.7.5 0 .4-.6 1.1-1.9 2.3-1.2 1.1-1.9 1.7-2.1 1.8-.8 0-1.7-.5-2.6-1.7-1.1-1.2-1.4-2.2-1.3-3.1zm1.7 20.5c.8.5 1.3.7 1.7.7a55414863459046760 55414863459046760 0 0 1 4.4 11c-.2.3-1.5 1.2-4 2.7-.7-.2-1.4-.5-2.3-.9-1.1-.6-1.8-.9-2.1-1.1.1-1.7.5-3.8 1.1-6.3.6-2.8 1-4.8 1.2-6.1zm4-31.9c-.7 1.2-1.1 2.1-1.2 2.6-.4 1.1-.2 1.6.5 1.5-.4-.4-.3-1.1.2-2.2s.7-1.7.5-1.9zm0 31.6c.1-.4.4-.9 1-1.4.6-.5.9-.9 1-1.3.8 1.1 1.6 2.9 2.6 5.3 1 2.7 1.9 4.5 2.4 5.4-1.2 1.8-2.5 2.9-4.1 3.4-.3-1.5-.8-3.4-1.5-5.7-.6-2.9-1.1-4.8-1.4-5.7zm3-3.4c0-.6.3-1.2.8-1.8.5-.6.8-1.2.9-1.6.9 1.2 2 2.9 3.3 5.1 1.7 3 2.8 4.7 3.1 5.3.1-.3-.8.9-2.7 3.4.2.2-1.6-3.3-5.4-10.4zM65.6 48c0-.4.5-1.1 1.4-2.3.9-1.2 1.5-2.1 1.7-2.8 1.3-.2 3-.7 5.3-1.5 2.2-.8 4-1.3 5.4-1.5-.7 2.3-2.6 4.1-5.6 5.3-.9.4-2.2.8-4.1 1.4-1.9.6-3.3 1.1-4.1 1.4zm4.7-6c.3-2.8 2.4-5 6.4-6.6 1-.4 2.8-1 5.3-1.8 2.3-.7 4-1.2 5-1.8-.8 3-3 5.2-6.7 6.7-1 .4-2.7 1-5 1.7s-4 1.3-5 1.8zm6-12.1c2.1-.5 5-1.4 8.6-2.6 3.8-1.3 6.7-2.3 8.5-2.7-1.1 3-3.8 5.4-8 7-1.3.5-3.2 1.1-5.7 1.8-2.8.6-4.7 1.2-5.7 1.5.5-.7 1.3-2.4 2.3-5z"></path></g><!----></svg>