<svg xmlns="http://www.w3.org/2000/svg" xmlns:xlink="http://www.w3.org/1999/xlink" viewBox="0 0 644 644"><defs><style>.cls-1{fill:none;}.cls-2{fill:url(#linear-gradient);}.cls-3{fill:#282828;}.cls-4{clip-path:url(#clip-path);}.cls-5{fill:url(#linear-gradient-2);}</style><linearGradient id="linear-gradient" x1="-44.61" y1="189.6" x2="498.59" y2="189.6" gradientTransform="translate(508.59 103.61) rotate(90)" gradientUnits="userSpaceOnUse"><stop offset="0" stop-color="#fdc765"/><stop offset="1" stop-color="#d5a040"/></linearGradient><clipPath id="clip-path" transform="translate(84 59)"><path class="cls-1" d="M233,347.4a11.54,11.54,0,0,0,7-2.36l36.94-28.1a11.63,11.63,0,0,0,4.56-9.2V248.08a11.63,11.63,0,0,0-4.56-9.2L240,210.79a11.61,11.61,0,0,0-14,0l-36.92,28.09a11.63,11.63,0,0,0-4.56,9.2v59.65a11.58,11.58,0,0,0,4.57,9.22L226,345.05A11.59,11.59,0,0,0,233,347.4Zm-38.5-39.59V248a1.51,1.51,0,0,1,.58-1.18l37-28.16a1.5,1.5,0,0,1,1.8,0l37,28.16a1.51,1.51,0,0,1,.58,1.18v59.79a1.51,1.51,0,0,1-.58,1.18l-37,28.16a1.5,1.5,0,0,1-1.8,0l-37-28.16A1.51,1.51,0,0,1,194.5,307.81Zm66.92,1.69h-56c-4.63,0-8.39-2.67-8.41-6s3.73-6,8.37-6l55.86,1h.11c4.25,0,7.69,2.45,7.71,5.47S265.68,309.49,261.42,309.5Zm-.11-30s7.84,1.59,7.86,4.68-7.83,5.32-7.83,5.32H205.1c-4.24,0-7.69-2.45-7.71-5.47s3.42-5.52,7.68-5.53l56.2,1Zm-64.27-14c0-3.32,3.73-6,8.37-6l55.86,1h0s7.84,1.49,7.86,4.58-7.83,5.42-7.83,5.42l-56,1C200.78,271.47,197.06,268.81,197,265.53Zm8.18,6h0ZM205.08,191l-6.74-14.6a5.06,5.06,0,1,1,9.18-4.24l6.74,14.61a5.05,5.05,0,0,1-2.47,6.71,5.15,5.15,0,0,1-2.11.46A5.06,5.06,0,0,1,205.08,191Zm60.63-21.31a5.05,5.05,0,0,1,2.47,6.71L261.44,191a5.05,5.05,0,1,1-9.18-4.23L259,172.17A5.06,5.06,0,0,1,265.71,169.7Zm-35,20.71a5.06,5.06,0,0,1,5,0l30.89,17.84a5.05,5.05,0,1,1-5.05,8.75l-28.37-16.37L204.9,217a5.05,5.05,0,1,1-5.06-8.75Zm-66,88.09a5.06,5.06,0,0,0,4.38-2.53l10.07-17.44a5.08,5.08,0,0,0,0-5.06L169.08,236a5.06,5.06,0,0,0-4.38-2.53H144.55a5,5,0,0,0-4.37,2.53L130.1,253.47a5.08,5.08,0,0,0,0,5.06L140.18,276a5,5,0,0,0,4.37,2.53ZM140.19,256l7.22-12.5h14.43l7.22,12.5-7.22,12.5H147.41Zm157.26,20a5,5,0,0,0,4.38,2.53H322a5,5,0,0,0,4.38-2.53l10.07-17.44a5.08,5.08,0,0,0,0-5.06L326.35,236A5,5,0,0,0,322,233.5H301.83a5,5,0,0,0-4.38,2.53l-10.07,17.44a5.08,5.08,0,0,0,0,5.06Zm7.23-32.47h14.44l7.21,12.5-7.21,12.5H304.68L297.47,256Zm41.23-67.34,18.71,18.72a4.5,4.5,0,0,1,0,6.37L350.5,215.37v18.26L369,252.08l0,0a4.55,4.55,0,0,1,1.68,1.51,4.61,4.61,0,0,1-.71,5.76L351.5,277.84V296.1l14.12,14.13a4.49,4.49,0,0,1,0,6.36l-18.71,18.72a4.51,4.51,0,0,1-6.87-.59,4.82,4.82,0,0,1,.62-5.89l15.42-15.42-12.26-12.26A4.47,4.47,0,0,1,342.5,298V276a4.49,4.49,0,0,1,1.32-3.19l16.55-16.55-17.55-17.56a4.47,4.47,0,0,1-1.32-3.18v-22a4.49,4.49,0,0,1,1.32-3.19l12.26-12.26-15.42-15.41a4.61,4.61,0,0,1-.71-5.76A4.51,4.51,0,0,1,345.91,176.16ZM97.43,258a4.81,4.81,0,0,1,.62-5.88l18.45-18.46V215.37l-14.12-14.12a4.5,4.5,0,0,1,0-6.37l18.71-18.72a4.51,4.51,0,0,1,7,.73,4.61,4.61,0,0,1-.71,5.76l-15.42,15.41,12.26,12.26a4.49,4.49,0,0,1,1.32,3.19v22a4.47,4.47,0,0,1-1.32,3.18l-16.55,16.56,17.55,17.55A4.49,4.49,0,0,1,126.5,276v22a4.47,4.47,0,0,1-1.32,3.18l-12.26,12.26,15.42,15.42a4.82,4.82,0,0,1,.62,5.89,4.51,4.51,0,0,1-6.87.59l-18.71-18.72a4.49,4.49,0,0,1,0-6.36L117.5,296.1V277.84L99.05,259.39h0A4.58,4.58,0,0,1,97.43,258ZM179.5,135.5h-4v-4h4Zm-45.51,7H130.5v3h13v4h-7v4h28v-4h11v-4h-7v-3h4v-7H154.81a7.35,7.35,0,0,1-5-1.86,6.77,6.77,0,0,1-2.23-5.14H144.5v-3h3.73a4.18,4.18,0,0,1,1.17-2.08,6.23,6.23,0,0,1,5-1.92h18.1V106.4a2.9,2.9,0,0,0-2.9-2.9H155a24.75,24.75,0,0,0-16.42,6,23.79,23.79,0,0,0-8.28,15H126.5v4h3.1A23.12,23.12,0,0,0,134,142.5Zm-1.49-11h4v4h-4Zm103,2.52v-.51a4.47,4.47,0,0,1,1.89-2h.5a2.89,2.89,0,0,1,1.61,2V134a1.6,1.6,0,0,1-1.61,1.48h-.5A2.13,2.13,0,0,1,235.5,134Zm-54.79-5.52h.57a1.35,1.35,0,0,1,1.33,1.3,23.33,23.33,0,0,0,4.31,12.7h-1.09a1.32,1.32,0,0,0-1.33,1.33v.81s.86,1.52,1.7.86h9.18c.84.66,1.52,1.34,1.12,2.18v.5c.4.84-1.12,1.32-1.12,1.32h-4s-1.52.89-1.84,1.73v.5a2.91,2.91,0,0,0,1.84,1.77h18.21c.84-.25,1.52-.93.95-1.77v-.5a8.08,8.08,0,0,1,2.09-1.73h14.67s1.53-.48,1.24-1.32v-.5c.29-.84-.4-1.52-1.24-2.18h-3c-.84.66-1.78-.86-1.78-.86V144A1.52,1.52,0,0,1,224,142.5h2.82a1.56,1.56,0,0,0,1.28-.67,23.05,23.05,0,0,0,3.86-11.7,1.53,1.53,0,0,0-1.52-1.63H230A1.52,1.52,0,0,1,228.5,127v-.55s1-1.52,1.81-1.52a1.53,1.53,0,0,0,1.48-1.87,23.92,23.92,0,0,0-6.72-12.12Q214.65,100.5,198,105a2.09,2.09,0,0,0-.41.17q-12.36,7.11-14.47,18.43c-.14.73-.75,1.28-1.49.87h-.95a6.86,6.86,0,0,0-2.21,1.93v.5A7.93,7.93,0,0,0,180.71,128.5Zm20.07-2.56a2,2,0,0,1,.2-.48q3.11-5.26,9.06-3.76a2,2,0,0,1,.48.2q5.26,3.1,3.76,9.07a1.63,1.63,0,0,1-.2.47Q211,136.72,205,135.2a1.63,1.63,0,0,1-.47-.2Q199.28,131.9,200.78,125.94Zm-13.28,7.57a7.15,7.15,0,0,1,2.14-2h.5c.84.49,1.52,1.17,1.36,2V134a1.26,1.26,0,0,1-1.36,1.48h-.5c-.84,0-1.52-.64-2.14-1.48Zm53.27-5h.82c.75-.05,1.91,1.31,1.91,1.31v11.45s-1.16,1.36-1.91,1.24h-.82A1.41,1.41,0,0,0,239.5,144v.82c-.09.75,1.27.7,1.27.7h4.36s1.37,1.27,1.37,2v.81a1.1,1.1,0,0,1-1.37,1.16h-.81c-.76.21-1.82,1.57-1.82,1.57v.82a6,6,0,0,0,1.82,1.61h18.12A26.82,26.82,0,0,0,275,149.9a4.25,4.25,0,0,0,.68-.4h4.86c.75.21,1.94-1.16,1.94-1.16v-.81s-1.19-1.37-1.94-1h-.82c-.75-.34-1.36-.95-1.24-1.7V144c-.12-.75,1.24-1.48,1.24-1.48h1.84a1.39,1.39,0,0,0,1.15-.6A23.33,23.33,0,0,0,286.61,130a1.37,1.37,0,0,0-1.36-1.46h-.39a1.36,1.36,0,0,1-1.36-1.36v-1.29a1.35,1.35,0,0,1,1.36-1.35,1.37,1.37,0,0,0,1.33-1.65q-2.47-12-16.95-19.2a1.42,1.42,0,0,0-.63-.15H243.86a1.35,1.35,0,0,0-1.36,1.35v18.3a1.35,1.35,0,0,1-1.36,1.35h-.37s-1.36,1-1.27,1.77v.82A1.3,1.3,0,0,0,240.77,128.5Zm19.73-5.64a1.36,1.36,0,0,1,1.36-1.36h2a1.47,1.47,0,0,1,.65.15q6,3.09,4.38,9.36a1.72,1.72,0,0,1-.18.42q-2.39,4.06-6.48,4.07H260.5Zm-14,10.5a2.45,2.45,0,0,1,1.36-1.86h.82a5.77,5.77,0,0,1,1.82,1.86v.81c-.46.76-1.07,1.37-1.82,1.33h-.82a1.31,1.31,0,0,1-1.36-1.33Zm44,.81v-.81a4.84,4.84,0,0,1,1.74-1.86h.82a2.77,2.77,0,0,1,1.44,1.86v.81a1.42,1.42,0,0,1-1.44,1.33h-.82A2,2,0,0,1,290.5,134.17Zm46.33-.4a1.77,1.77,0,1,1,1.77,1.77A1.78,1.78,0,0,1,336.83,133.77Zm-40.74-5.32a3.18,3.18,0,0,1,2.41,1.77v10.63a3.18,3.18,0,0,1-2.41,1.77,1.77,1.77,0,0,0-1.77,1.77c0,1,.79,1.77,1.77,1.11h3.54a3.26,3.26,0,0,1,1.77,2.43c0,1-1.77,1.57-1.77,1.57h-7.08s-1.77,1-1.77,2a2.21,2.21,0,0,0,1.77,2h31.88a2.21,2.21,0,0,0,1.77-2c0-1,1.77-2,1.77-2h7.08s1.78-.59,1.78-1.57-1.78-2.43-1.78-2.43h-3.54s-1.77-.13-1.77-1.11a1.77,1.77,0,0,1,1.77-1.77,1.77,1.77,0,0,0,1.77-1.77c0-1-1.77-1.35-1.77-1.35H317.34s-1.77-1.21-1.77-2.19a1.83,1.83,0,0,1,1.77-1.81h14.17c1,0,2-1.73,2-1.73v-3.55s-1-1.77-2-1.77a1.77,1.77,0,0,1,0-3.54,1.77,1.77,0,0,0,1.77-1.77,1.59,1.59,0,0,0-1.77-1.64H317.34a2,2,0,0,1-1.77-1.9,2.37,2.37,0,0,1,1.77-2.1h14.17c1,.32,2-1.45,2-1.45V105.27a1.77,1.77,0,0,0-1.77-1.77H300.27a1.77,1.77,0,0,0-1.77,1.77v17.87s-1.43,1.77-2.41,1.77a1.77,1.77,0,0,0,0,3.54Zm7.08,3.54a1.78,1.78,0,1,1-1.77,1.78A1.78,1.78,0,0,1,303.17,132ZM138.7,407.65a2.48,2.48,0,0,0-1.77-2.15h-3.54a1.32,1.32,0,0,1-1.77-1.39,1.77,1.77,0,0,1,1.77-1.77,2.39,2.39,0,0,0,2.11-1.77V389.94a2.39,2.39,0,0,0-2.11-1.77,1.77,1.77,0,1,1,0-3.54c1,0,2.11-1.77,2.11-1.77V365.27a1.77,1.77,0,0,0-1.77-1.77H119.27a1.77,1.77,0,0,0-1.77,1.77v14.46a1.77,1.77,0,0,1-1.77,1.77h-7.46a1.77,1.77,0,0,1-1.77-1.77V365.27a1.77,1.77,0,0,0-1.77-1.77H90.27a1.77,1.77,0,0,0-1.77,1.77v17.59s-.18,1.77-1.16,1.77a1.77,1.77,0,0,0,0,3.54c1,0,1.77.79,1.16,1.77v10.63c.61,1-.18,1.77-1.16,1.77a1.77,1.77,0,0,0-1.77,1.77,1.32,1.32,0,0,0,1.77,1.39h3.54a2.48,2.48,0,0,1,1.77,2.15h0c0,1-1.77,1.85-1.77,1.85H83.79s-1.77.72-1.77,1.69a2.89,2.89,0,0,0,1.77,2.31h21.26c1-.53,1.45-2.31,1.45-2.31V397.27a1.77,1.77,0,0,1,1.77-1.77h7.46a1.77,1.77,0,0,1,1.77,1.77v14.46a1.77,1.77,0,0,0,1.77,1.77h7s1.77-1.33,1.77-2.31,1.77-1.69,1.77-1.69h7.09s1.77-.87,1.77-1.85ZM96.19,393.48a1.77,1.77,0,0,1-3.54,0h0a1.77,1.77,0,0,1,3.54,0Zm44.28-1.77a1.77,1.77,0,0,1,1.77,1.77h0a1.77,1.77,0,1,1-3.54,0h0A1.77,1.77,0,0,1,140.47,391.71Zm47.82,1.77h0a1.77,1.77,0,1,1-3.54,0h0a1.77,1.77,0,1,1,3.54,0Zm-3.54,14.17c0-1-1.77-2.15-1.77-2.15h-3.54s-1.77-.41-1.77-1.39a1.77,1.77,0,0,1,1.77-1.77,1.77,1.77,0,0,0,1.77-1.77h0c0-1-1.77-1.07-1.77-1.07H165.27S163.5,398,163.5,397a1.46,1.46,0,0,1,1.77-1.53h14.17c1-.25,1.06-2,1.06-2v-3.54s-.08-1.77-1.06-1.77a1.77,1.77,0,1,1,0-3.54,1.77,1.77,0,0,0,1.77-1.77c0-1-.79-1.78-1.77-1.36H165.27a2.58,2.58,0,0,1-1.77-2.19,1.83,1.83,0,0,1,1.77-1.81h14.17c1,0,1.06-1.73,1.06-1.73v-10.5a1.77,1.77,0,0,0-1.77-1.77H147.27a1.77,1.77,0,0,0-1.77,1.77v17.59s-.51,1.77-1.49,1.77a1.77,1.77,0,1,0,0,3.54,1.41,1.41,0,0,1,1.49,1.77v10.63a1.41,1.41,0,0,1-1.49,1.77,1.77,1.77,0,0,0-1.77,1.77A1.32,1.32,0,0,0,144,405.5h3.55a2.5,2.5,0,0,1,1.77,2.15h0c0,1-1.77,1.85-1.77,1.85h-7.09s-1.77.72-1.77,1.69a2.87,2.87,0,0,0,1.77,2.31h31.88a2.87,2.87,0,0,0,1.77-2.31c0-1,1.78-1.69,1.78-1.69H183s1.77-.87,1.77-1.85Zm-31.88-14.17a1.77,1.77,0,1,1-3.54,0h0a1.77,1.77,0,1,1,3.54,0Zm72.62,12h-3.74a1.75,1.75,0,0,1,0-3.5,1.75,1.75,0,0,0,0-3.5h-10.5a1.75,1.75,0,0,1-1.75-1.75v-7a1.75,1.75,0,0,0-1.75-1.75,1.75,1.75,0,0,1,0-3.5,1.75,1.75,0,0,0,1.75-1.75V365.27a1.77,1.77,0,0,0-1.77-1.77H193.27a1.77,1.77,0,0,0-1.77,1.77v17.59s-.46,1.77-1.44,1.77a1.77,1.77,0,1,0,0,3.54,1.36,1.36,0,0,1,1.44,1.77v10.63a1.36,1.36,0,0,1-1.44,1.77,1.77,1.77,0,0,0-1.77,1.77,1.32,1.32,0,0,0,1.77,1.39h3.55a2.48,2.48,0,0,1,1.77,2.15h0c0,1-1.77,1.85-1.77,1.85h-7.09s-1.77.72-1.77,1.69a2.87,2.87,0,0,0,1.77,2.31h28.34a2.87,2.87,0,0,0,1.77-2.31c0-1,1.77-1.69,1.77-1.69h7.09s1.77-.87,1.77-1.85h0C227.26,406.67,225.49,405.5,225.49,405.5Zm-26.57-12a1.77,1.77,0,1,1-3.54,0h0a1.77,1.77,0,1,1,3.54,0Zm15.94-1.77a1.77,1.77,0,0,1,1.77,1.77h0a1.77,1.77,0,1,1-3.54,0h0A1.77,1.77,0,0,1,214.86,391.71Zm65.64,2.17A2.1,2.1,0,0,1,279,395.5h-.8a3,3,0,0,1-1.72-1.62v-.8a2.79,2.79,0,0,1,1.72-1.58h.8a2,2,0,0,1,1.48,1.58Zm-6.65-9.38h1.58s1.33-.45,1.37-1.18.05-1.46.05-2.24c0-11.8-4.72-17.71-14.17-17.58h-27a1,1,0,0,0-1.21,1.24v18.52A1.42,1.42,0,0,1,233,384.5h-.8c-.76.13-1.67,1.5-1.67,1.5v.8a5.8,5.8,0,0,0,1.67,1.7h.8c.76-.33,1.37.28,1.53,1V401A2,2,0,0,1,233,402.5h-.8c-.76-.16-1.67,1.21-1.67,1.21v.8s.91,1.37,1.67,1h4.35c.75.38,1.37,1,1,1.75v.8c.39.76-1,1.45-1,1.45h-7.89s-1.37.54-1.13,1.29v.81c-.24.75.37,1.37,1.13,1.9h15a7.62,7.62,0,0,0,1.9-1.9v-.81c-.53-.75.84-1.29.84-1.29h7.89s1.37-.69,1.27-1.45v-.8c.1-.76-.52-1.37-1.27-1.75h-4.35c-.75.38-1.38-1-1.38-1v-.8s.63-1.37,1.38-1.21h.81A3,3,0,0,0,252.5,401v-.8c-.44-.76.93-1.67.93-1.67h8.92q9.87,0,12.79-8.7a1.36,1.36,0,0,0-1.29-1.8,1.36,1.36,0,0,1-1.35-1.35v-.8A1.36,1.36,0,0,1,273.85,384.5Zm-32.35,9.38a2,2,0,0,1-1.44,1.62h-.8a3.16,3.16,0,0,1-1.76-1.62v-.8a3,3,0,0,1,1.76-1.58h.8a1.89,1.89,0,0,1,1.44,1.58Zm17.68-10.46a1.38,1.38,0,0,1-1.34,1.08h-4a1.37,1.37,0,0,1-1.37-1.37v-4.26a1.37,1.37,0,0,1,1.37-1.37H256C259,377.5,260.1,379.47,259.18,383.42Zm67.26,10.06h0a1.78,1.78,0,0,1,3.55,0h0a1.78,1.78,0,0,1-3.55,0Zm-1.77,12h-3.54s-1.77-.41-1.77-1.39a1.77,1.77,0,0,1,1.77-1.77,1.77,1.77,0,0,0,1.77-1.77h0c0-1-1.77-1.07-1.77-1.07H307s-1.77-1.5-1.77-2.47A1.46,1.46,0,0,1,307,395.5h14.17c1-.25,1.37-2,1.37-2v-3.54s-.39-1.77-1.37-1.77a1.77,1.77,0,1,1,0-3.54,1.77,1.77,0,0,0,1.77-1.77c0-1-.79-1.78-1.77-1.36H307a2.58,2.58,0,0,1-1.77-2.19A1.83,1.83,0,0,1,307,377.5h14.17c1,0,1.37-1.73,1.37-1.73v-10.5a1.77,1.77,0,0,0-1.77-1.77H289.27a1.77,1.77,0,0,0-1.77,1.77v17.59s-.81,1.77-1.79,1.77a1.77,1.77,0,1,0,0,3.54,1.8,1.8,0,0,1,1.79,1.77v10.63a1.8,1.8,0,0,1-1.79,1.77,1.77,1.77,0,0,0-1.77,1.77,1.32,1.32,0,0,0,1.77,1.39h3.54a2.48,2.48,0,0,1,1.77,2.15h0c0,1-1.77,1.85-1.77,1.85h-7.08s-1.78.72-1.78,1.69a2.89,2.89,0,0,0,1.78,2.31h31.88a2.89,2.89,0,0,0,1.77-2.31c0-1,1.77-1.69,1.77-1.69h7.08s1.77-.87,1.77-1.85h0C326.44,406.67,324.67,405.5,324.67,405.5Zm-30.11-12a1.77,1.77,0,1,1-3.54,0h0a1.77,1.77,0,1,1,3.54,0Zm84.63,12H372c-.72.38-1.46-.93-1.46-.93v-.92s.74-1.31,1.46-1.15h1.56l-4-7.19a1.3,1.3,0,0,1,.49-1.78,10.28,10.28,0,0,0,3.69-3.26,1.32,1.32,0,0,0-1.05-2.1,1.09,1.09,0,0,1-1.14-1.31v-.92c-.17-.73,1.14-1.44,1.14-1.44h2s1.24-.4,1.31-1.09.1-1.51.1-2.33c0-11.8-4.73-17.71-14.17-17.58h-27a1.18,1.18,0,0,0-1.34,1.18v18.64a1.1,1.1,0,0,1-1.28,1.18h-.92c-.73.13-.8,1.44-.8,1.44v.92s.07,1.31.8,1.64h.92a.91.91,0,0,1,1.28,1V401a1.53,1.53,0,0,1-1.28,1.47h-.92c-.73-.16-.8,1.15-.8,1.15v.54a1.31,1.31,0,0,0,1.31,1.31h4.38a1.31,1.31,0,0,1,1.31,1.31v1.3s-1,1.31-1.74,1.39h-8a1.13,1.13,0,0,0-1.25,1.23v.93c-.06.72,1.25,1.84,1.25,1.84h22.18a6.93,6.93,0,0,0,1.57-1.84V399.3a1.15,1.15,0,0,1,2.19-.65l7.8,13.66a10.72,10.72,0,0,0,1.14,1.19h8.55a2.57,2.57,0,0,0,1.32-1.84v-.93c0-.72,1.3-1.23,1.3-1.23h5.39s1.31-.66,1.31-1.39v-.92A2.1,2.1,0,0,0,379.19,405.5Zm-39.89-10h-.92a4.35,4.35,0,0,1-1.88-1.56V393a4,4,0,0,1,1.88-1.52h.92a1.46,1.46,0,0,1,1.2,1.52v.92A1.52,1.52,0,0,1,339.3,395.5Zm18.87-12a1.39,1.39,0,0,1-1.28,1h-4.08a1.31,1.31,0,0,1-1.31-1.31v-4.38a1.31,1.31,0,0,1,1.31-1.31H355Q359.58,377.5,358.17,383.47Zm19.18,8h.92A1.53,1.53,0,0,1,379.5,393v.92a1.59,1.59,0,0,1-1.23,1.56h-.92a4.07,4.07,0,0,1-1.85-1.56V393A3.8,3.8,0,0,1,377.35,391.5Z"/></clipPath><linearGradient id="linear-gradient-2" x1="279.24" y1="199.24" x2="734.61" y2="199.24" gradientTransform="translate(744.93 462.24) rotate(180)" gradientUnits="userSpaceOnUse"><stop offset="0" stop-color="#ffd583"/><stop offset="1" stop-color="#a67725"/></linearGradient></defs><title>Asset 2</title><g id="Layer_2" data-name="Layer 2"><g id="Layer_1-2" data-name="Layer 1"><polygon class="cls-2" points="553.98 466.4 553.98 194.8 318.99 59 84 194.8 84 466.4 318.99 602.2 553.98 466.4"/><polygon class="cls-3" points="94 201.7 94 461.8 319.25 591.85 544.5 461.8 544.5 201.7 319.25 71.65 94 201.7"/><g class="cls-4"><rect class="cls-5" x="10.31" y="35.31" width="455.38" height="455.38" transform="translate(304.32 676.26) rotate(-135)"/></g></g></g></svg>